<svg xmlns="http://www.w3.org/2000/svg" viewBox="0 0 283.465 156.969">
    <g data-name="Layer">
        <path fill="#fff" d="M0 156.966h283.465V0H0z"/>
        <path fill="#0079c1" d="M266.457 110.644H95.663v29.325h170.794z"/>
        <clipPath id="a">
            <path d="M0 156.969h283.465V0H0z" transform="matrix(1 0 0 -1 0 156.969)"/>
        </clipPath>
        <g clip-path="url(#a)">
            <path fill="#0079c1"
                  d="M84.253 58.604c-.097 4.355-.618 8.952-1.28 11.7.238-4.736-.33-11.418-1.422-16.631-1.09-5.213-4.17-13.93-6.634-17.957-2.274 3.837-5.072 11.373-6.539 17.909-1.473 6.543-1.518 14.452-1.518 16.826-.387-2.002-1.368-9.131-1.089-16.304.228-5.914 1.611-11.988 2.37-14.783 2.888-9.335 6.161-15.302 6.776-16.251.615.949 4.737 8.293 6.873 16.016 2.128 7.722 2.555 15.115 2.463 19.475m-9.289 33.342c-1.279-2.416-3.269-7.007-3.46-14.106-.048-6.87 2.702-12.747 3.506-13.976.714 1.229 3.081 6.348 3.363 13.36.193 6.863-2.082 12.259-3.409 14.722m10.047-52.724C82.403 27.804 75.866 18.517 74.964 17c-1.42 2.132-6.636 10.329-9.287 19.429-2.894 10.139-3.318 19.138-2.32 28 .992 8.865 4.737 17.958 4.737 17.958 1.99 4.776 4.973 9.887 6.916 12.4 2.843-3.695 9.384-14.718 11.422-29.126 1.135-8.006 1.185-15.018-1.42-26.44"/>
            <path fill="#0079c1"
                  d="M79.392 97.447H59.56v13.31c.017-.019.032-.039.049-.056 4.673-4.67 12.25-4.67 16.924 0 4.67 4.673 4.67 12.251 0 16.922-.02.02-.042.037-.06.056 0 0 0 .003-.003.004-.023.024-.048.041-.07.063a23.822 23.822 0 0 1-16.84 6.943 23.824 23.824 0 0 1-16.901-7c-8.224-8.223-9.198-20.948-2.93-30.242a24.101 24.101 0 0 1 2.93-3.559 23.831 23.831 0 0 1 16.9-6.995V54.904C36.055 54.904 17 73.96 17 97.447c0 23.506 19.055 42.561 42.562 42.561 12.256 0 23.296-5.184 31.063-13.469V97.447zm16.271-42.543h16.225v5.275h-7.718v37.258h-8.507zm15.992 42.534h8.323l.79-11.304h4.012l.79 11.304h8.326l-4.438-42.533h-13.367zm9.417-15.98 1.458-21.281h.49l1.455 21.28zm24.006 1.09v8.01c0 1.094.849 1.4 1.335 1.4.793 0 1.338-.669 1.338-1.4v-9.892c0-1.337-.244-2.793-3.403-2.793h-3.463v-4.679h3.584c2.43 0 3.282-.548 3.282-3.16v-8.459c0-.728-.545-1.396-1.338-1.396-.486 0-1.335.304-1.335 1.396v6.938h-8.506V62.5c0-2.979.363-7.595 6.317-7.595h7.053c5.958 0 6.32 4.616 6.32 7.595v6.805c0 4.618-3.22 5.895-5.771 5.772v.427c5.71-.122 5.77 4.252 5.77 5.771v8.568c0 2.977-.361 7.595-6.32 7.595h-7.052c-5.954 0-6.317-4.618-6.317-7.595v-7.294zm15.655-27.644h19.69v42.533h-8.502V60.18h-2.678v37.258h-8.51zm24.662 42.534h8.507V82.976h4.86c5.958 0 6.321-4.62 6.321-7.595V62.5c0-2.98-.363-7.595-6.32-7.595h-13.368zm8.507-19.138V60.18H195c.91 0 1.578.789 1.578 2.123v13.869c0 1.337-.667 2.128-1.578 2.128zm15.315 11.543c0 2.976.366 7.595 6.32 7.595h7.049c5.953 0 6.32-4.619 6.32-7.595V62.499c0-2.978-.367-7.594-6.32-7.594h-7.05c-5.953 0-6.32 4.616-6.32 7.594zm11.182.716c0 .73-.546 1.398-1.335 1.398-.49 0-1.34-.304-1.34-1.398V61.576c0-1.093.85-1.396 1.34-1.396.789 0 1.335.668 1.335 1.396zm35.007-35.655h11.06v42.533h-8.509V70.764h-.303l-4.375 26.673h-6.807L242.1 70.764h-.306v26.673h-8.506V54.904h11.057l5.531 29.895z"/>
            <path fill="#fff"
                  d="M105.603 130.983h.956c1.594 0 2.06-.611 2.06-2.205 0-1.473-.466-2.281-1.962-2.281h-1.054zm0-7.65h1.25c1.202 0 1.667-.588 1.667-1.985 0-1.031-.465-1.643-1.667-1.643h-1.25zm-4.094-6.791h6.766c2.06 0 4.34 1.25 4.34 4.414 0 2.402-1.471 3.53-2.403 3.727 1.643.686 2.574 1.814 2.574 4.265 0 3.285-1.765 5.199-5.369 5.199h-5.908zm30.007 6.792h2.771v-6.792h4.241v17.605h-4.24v-7.48h-2.772v7.48h-4.242v-17.605h4.242zm25.743-6.792v4.365c0 1.936-.54 4.756-.638 6.693h.025l3.579-11.058h4.046v17.605h-4.046v-4.096c0-1.888.589-4.756.785-6.62h-.025l-3.653 10.716h-4.118v-17.605zm25.741 0v4.365c0 1.936-.54 4.756-.638 6.693h.025l3.579-11.058h4.046v17.605h-4.046v-4.096c0-1.888.589-4.756.785-6.62h-.024l-3.654 10.716h-4.118v-17.605zm31.552 0v3.335h-5.615v14.27h-4.24v-17.605zm19.123 10.909-1.128-7.747h-.024l-1.105 7.747zm1.47-10.91 3.899 17.605h-4.168l-.638-3.53h-3.236l-.54 3.53h-4.216l3.825-17.605zm14.881 5.369c0-3.651 2.28-5.76 5.32-5.76 3.36 0 5.246 2.182 5.246 4.658 0 2.182-.71 3.287-2.5 4.07h.048c1.791.663 3.066 1.398 3.066 4.56 0 3.482-2.256 5.125-5.615 5.125-2.623 0-5.565-1.152-5.565-5.69h3.897c0 1.963.565 2.526 1.497 2.526 1.103 0 1.544-.563 1.544-2.526 0-1.64-.515-2.304-1.863-2.304h-.613v-3.163h1.006c.613 0 1.274-.685 1.274-1.935 0-1.324-.417-2.158-1.422-2.158-1.079 0-1.423.785-1.423 2.598z"/>
        </g>
    </g>
</svg>
